<svg width="1920" height="80" viewBox="0 0 1920 80" fill="none" xmlns="http://www.w3.org/2000/svg">
    <g clip-path="url(#clip0_421_1173)">
        <path d="M960 0H1920V13.3333C1920 13.3333 1398.16 17.5 1330.25 17.5C1262.34 17.5 1247.16 80 1191.09 80H960V0Z"
              fill="url(#paint0_linear_421_1173)"/>
        <path d="M1191.09 79.9998H960V76.6665H1191.09C1217.78 76.6665 1235.12 62.5769 1253.47 47.6585L1253.48 47.6471C1263.48 39.5188 1273.82 31.1141 1286.05 24.7858C1292.3 21.5071 1299.03 18.924 1306.07 17.1019C1309.83 16.1436 1313.67 15.4189 1317.56 14.9347C1321.76 14.4181 1326 14.1611 1330.25 14.1657C1395.91 14.1657 1898.3 10.1732 1919.66 9.99902H1920V13.3324L1917.6 13.3519C1830.34 14.0444 1391.9 17.4974 1330.25 17.4974C1294.67 17.4974 1273.72 34.5236 1253.47 50.9886L1253.46 50.9959C1244.18 58.5393 1235.41 65.6627 1225.44 71.0594C1220.5 73.7891 1215.15 75.9707 1209.53 77.5511C1203.58 79.1923 1197.36 80.0195 1191.09 79.9998Z"
              fill="url(#paint1_linear_421_1173)"/>
        <path d="M1234.31 80H1230.96C1242.76 74.5 1252.8 66.333 1263.44 57.688L1263.45 57.6831L1263.46 57.6685L1263.47 57.6603L1263.48 57.6538L1263.5 57.6351C1273.5 49.5126 1283.83 41.1134 1296.06 34.79C1302.3 31.5096 1309.03 28.9266 1316.07 27.1069C1319.83 26.1481 1323.67 25.4233 1327.56 24.9398C1331.76 24.4239 1336.01 24.1672 1340.25 24.1715C1362.34 24.1715 1435.93 23.722 1559 22.8345V24.5011C1436.02 25.387 1362.42 25.8341 1340.25 25.8341C1304.67 25.8341 1283.73 42.8595 1263.48 59.3245L1263.46 59.3319C1254.19 66.8719 1245.43 73.9936 1235.45 79.397C1235.09 79.592 1234.71 79.7958 1234.31 80.0008L1234.31 80Z"
              fill="url(#paint2_linear_421_1173)"/>
        <path d="M960.001 0H0.000976562V13.3333C0.000976562 13.3333 521.844 17.5 589.751 17.5C657.658 17.5 672.837 80 728.907 80H960.001V0Z"
              fill="url(#paint3_linear_421_1173)"/>
        <path d="M728.908 80.0001L960 80.0001V76.6668L728.908 76.6668C702.215 76.6668 684.881 62.5768 666.529 47.6584L666.516 47.6476C656.516 39.5193 646.176 31.1143 633.945 24.7859C627.704 21.5072 620.975 18.9238 613.929 17.1018C610.169 16.1435 606.328 15.4193 602.439 14.9351C598.238 14.4185 593.996 14.1614 589.749 14.1659C524.094 14.1659 21.697 10.1734 0.343018 9.99927L0 10.0001V13.3334L2.40002 13.3526C89.66 14.0468 528.1 17.5001 589.749 17.5001C625.329 17.5001 646.273 34.5268 666.528 50.9918L666.537 50.9984C675.817 58.5418 684.583 65.6651 694.556 71.0618C699.5 73.7914 704.849 75.9739 710.468 77.5543C716.416 79.195 722.643 80.021 728.908 80.0001Z"
              fill="url(#paint4_linear_421_1173)"/>
        <path d="M685.688 80H689.041C677.246 74.5 667.198 66.3333 656.562 57.6883L656.556 57.6833L656.537 57.6683L656.531 57.66L656.52 57.6542L656.497 57.635C646.506 49.5125 636.174 41.1133 623.941 34.79C617.702 31.5095 610.973 28.9263 603.926 27.1067C600.166 26.1478 596.326 25.4236 592.437 24.94C588.236 24.4225 583.995 24.164 579.748 24.1667C557.664 24.1667 484.067 23.7167 361.002 22.8292V24.4958C483.984 25.385 557.58 25.8333 579.748 25.8333C615.331 25.8333 636.273 42.8592 656.525 59.3233L656.541 59.3333C665.812 66.8708 674.572 73.9925 684.556 79.3958C684.915 79.5917 685.296 79.795 685.687 80H685.688Z"
              fill="url(#paint5_linear_421_1173)"/>
    </g>
    <defs>
        <linearGradient id="paint0_linear_421_1173" x1="1440" y1="0" x2="1440" y2="80" gradientUnits="userSpaceOnUse">
            <stop stop-color="#5A65EA" stop-opacity="0.4"/>
            <stop offset="1" stop-color="#5A65EA" stop-opacity="0"/>
        </linearGradient>
        <linearGradient id="paint1_linear_421_1173" x1="965.76" y1="69.29" x2="1565.2" y2="-393.849"
                        gradientUnits="userSpaceOnUse">
            <stop stop-color="#DAD9FF"/>
            <stop offset="0.711" stop-color="#DAD9FF" stop-opacity="0"/>
            <stop offset="1" stop-color="#DAD9FF" stop-opacity="0"/>
        </linearGradient>
        <linearGradient id="paint2_linear_421_1173" x1="1559" y1="30.3233" x2="1263.33" y2="91.7564"
                        gradientUnits="userSpaceOnUse">
            <stop stop-color="#DAD9FF" stop-opacity="0"/>
            <stop offset="0.711" stop-color="#DAD9FF" stop-opacity="0.6"/>
            <stop offset="1" stop-color="#DAD9FF" stop-opacity="0"/>
        </linearGradient>
        <linearGradient id="paint3_linear_421_1173" x1="480.001" y1="0" x2="480.001" y2="80"
                        gradientUnits="userSpaceOnUse">
            <stop stop-color="#5A65EA" stop-opacity="0.4"/>
            <stop offset="1" stop-color="#5A65EA" stop-opacity="0"/>
        </linearGradient>
        <linearGradient id="paint4_linear_421_1173" x1="954.24" y1="69.2903" x2="354.803" y2="-393.848"
                        gradientUnits="userSpaceOnUse">
            <stop stop-color="#DAD9FF"/>
            <stop offset="0.711" stop-color="#DAD9FF" stop-opacity="0"/>
            <stop offset="1" stop-color="#DAD9FF" stop-opacity="0"/>
        </linearGradient>
        <linearGradient id="paint5_linear_421_1173" x1="689.041" y1="30.3185" x2="686.705" y2="37.7888"
                        gradientUnits="userSpaceOnUse">
            <stop stop-color="#DAD9FF" stop-opacity="0"/>
            <stop offset="0.711" stop-color="#DAD9FF" stop-opacity="0.6"/>
            <stop offset="1" stop-color="#DAD9FF" stop-opacity="0"/>
        </linearGradient>
        <clipPath id="clip0_421_1173">
            <rect width="1920" height="80" fill="white"/>
        </clipPath>
    </defs>
</svg>
